<svg xmlns="http://www.w3.org/2000/svg" viewBox="0 0 210.97 243.61">
    <defs>
        <style>
            .cls-1{fill:#05e697;}.cls-2{fill:#00cc85;}.cls-3{fill:#3fe6ab;}.cls-4{fill:#33ffb8;}.cls-5{fill:#0affa9;}.cls-6{fill:#7effd1;}
        </style>
    </defs>
    <g id="Layer_2" data-name="Layer 2">
        <g id="Layer_1-2" data-name="Layer 1">
            <polygon class="cls-1" points="105.49 24.36 168.76 60.9 168.76 207.07 105.49 243.61 105.49 24.36"/>
            <polygon class="cls-2" points="105.49 24.36 105.49 243.61 42.19 60.9 105.49 24.36"/>
            <polygon class="cls-3" points="62.99 72.9 84.39 133.81 105.49 194.89 84.39 207.07 42.2 85.26 62.99 72.9"/>
            <polygon class="cls-2" points="21.1 194.89 21.1 73.08 42.19 60.9 42.19 182.71 21.1 194.89"/>
            <polygon class="cls-4" points="189.87 121.81 168.78 109.63 105.49 146.17 126.58 158.35 189.87 121.81"/>
            <polygon class="cls-4" points="84.39 207.07 189.87 146.17 210.97 158.35 126.58 207.07 84.39 207.07"/>
            <polygon class="cls-5"
                     points="0 182.71 21.1 194.89 21.1 97.45 63.29 219.25 105.49 243.61 105.49 121.81 84.39 109.63 84.39 207.07 42.19 85.27 0 60.91 0 182.71"/>
            <polygon class="cls-2"
                     points="126.59 109.63 147.68 97.46 147.68 121.8 126.58 133.99 210.97 85.27 210.97 60.91 105.49 121.81 105.49 243.61 210.97 182.71 210.97 158.35 126.58 207.07 126.58 182.71 189.87 146.17 189.87 121.81 126.58 158.35 126.58 133.99 126.59 109.63"/>
            <polygon class="cls-5" points="126.59 85.27 126.59 109.63 147.68 121.51 147.68 97.46 126.59 85.27"/>
            <polygon class="cls-6" points="84.4 109.62 105.51 97.45 126.59 109.63 105.49 121.81 84.4 109.62"/>
            <line class="cls-6" x1="7.22" y1="30.14" x2="6.94" y2="29.98"/>
            <polygon class="cls-6"
                     points="42.19 85.27 0 60.91 105.49 0 210.97 60.91 147.68 97.46 126.59 85.27 168.76 60.9 105.49 24.36 42.19 60.9 62.99 72.9 42.19 85.27"/>
        </g>
    </g>
</svg>